<svg xmlns="http://www.w3.org/2000/svg" viewBox="0 0 64 64">
  <rect width="64" height="64" rx="14" fill="#7D1F1F"/>
  <path d="M20 18h24a4 4 0 014 4v24a4 4 0 01-4 4H20a4 4 0 01-4-4V22a4 4 0 014-4z" fill="#fff" opacity="0.12"/>
  <path d="M24 22h16a2 2 0 012 2v2a2 2 0 01-2 2H24a2 2 0 01-2-2v-2a2 2 0 012-2z" fill="#fff"/>
  <path d="M24 32h16a2 2 0 012 2v2a2 2 0 01-2 2H24a2 2 0 01-2-2v-2a2 2 0 012-2z" fill="#fff"/>
  <path d="M24 42h10a2 2 0 012 2v2a2 2 0 01-2 2H24a2 2 0 01-2-2v-2a2 2 0 012-2z" fill="#fff"/>
</svg>